<svg xmlns="http://www.w3.org/2000/svg" viewBox="0 0 32 32">
  <!-- Phone body -->
  <rect x="8" y="2" width="16" height="28" rx="3" ry="3" fill="#000000" stroke="#1e3a5f" stroke-width="1.5"/>
  <!-- Screen -->
  <rect x="10" y="5" width="12" height="18" rx="1" fill="#1e3a5f"/>
  <!-- Home button -->
  <circle cx="16" cy="26" r="1.5" fill="#ffffff"/>
  <!-- Wrench overlay -->
  <g transform="translate(11, 7) scale(0.4)">
    <path d="M22.7 19l-9.1-9.1c.9-2.3.4-5-1.5-6.9-2-2-5-2.4-7.4-1.3L9 6 6 9 1.6 4.7C.4 7.1.9 10.1 2.9 12.1c1.9 1.9 4.6 2.4 6.9 1.5l9.1 9.1c.4.4 1 .4 1.4 0l2.3-2.3c.5-.4.5-1.1.1-1.4z" fill="#ffffff" stroke="#1e3a5f" stroke-width="1"/>
  </g>
</svg>
